<svg id="Layer_1" xmlns="http://www.w3.org/2000/svg" width="196.1" height="14.6" viewBox="0 0 196.1 14.6"><style>.st0{fill:#fff;stroke:#fff;stroke-width:.5;stroke-miterlimit:10}</style><path class="st0" d="M8 .5v1.4H1.7v4.7H8V8H1.7v4.7H8v1.4H.3V.5H8zM21 6l4-5.5h1.6l-4.7 6.8 4.7 6.8h-1.7L21 8.6l-4 5.5h-1.7L20 7.3 15.3.5H17L21 6zM34.4.5h5.5c2.1 0 3.8 1.8 3.8 4S42 8.4 39.9 8.4h-4v5.7h-1.4V.5zm1.4 1.4v5.2h4c1.3 0 2.3-1.2 2.3-2.6 0-1.4-1-2.6-2.3-2.6h-4zm23.8 10.8v1.4h-7.8V.5h1.4v12.2h6.4zM73.1.2c3.9 0 7.1 3.2 7.1 7.1s-3.2 7.1-7.1 7.1c-3.9 0-7.1-3.2-7.1-7.1S69.2.2 73.1.2zm0 12.8c3.1 0 5.6-2.6 5.6-5.7s-2.5-5.7-5.6-5.7c-3.1 0-5.6 2.6-5.6 5.7S70 13 73.1 13zm21.6-6.4c1.3 0 2.1-1 2.1-2.3 0-1.4-1-2.5-2.3-2.5h-4.1V14H89V.5h5.5c2.1 0 3.8 1.6 3.8 3.8 0 2.2-1.5 3.6-3.6 3.6H94l4.1 6.1h-1.7l-5-7.4h3.3zM114.6.5v1.4h-6.4v4.7h6.4V8h-6.4v4.7h6.4v1.4h-7.8V.5h7.8zm22.3 2.3v11.3h-1.4V.5h1.4l8.6 11.3V.5h1.4v13.6h-1.4l-8.6-11.3zM162.8.2c3.9 0 7.1 3.2 7.1 7.1s-3.2 7.1-7.1 7.1c-3.9 0-7.1-3.2-7.1-7.1s3.2-7.1 7.1-7.1zm0 12.8c3.1 0 5.6-2.6 5.6-5.7s-2.5-5.7-5.6-5.7c-3.1 0-5.6 2.6-5.6 5.7-.1 3.1 2.5 5.7 5.6 5.7zM178 .5l3.7 11.6L185.3.5h1.5l3.7 11.6L194.1.5h1.5l-4.4 13.6h-1.5L186 2.7l-3.7 11.4h-1.5L176.3.5h1.7z"/></svg>